{"title":"Complete Joy - Love","uid":15575641,"size":212303964,"categoryP":"video","categoryS":"other","magnet":"?xt=urn:btih:4839822c984308ce187444342e150c0e037ba997&amp;dn=Complete+Joy+-+Love&amp;tr=udp%3A%2F%2Ftracker.leechers-paradise.org%3A6969&amp;tr=udp%3A%2F%2Fzer0day.ch%3A1337&amp;tr=udp%3A%2F%2Fopen.demonii.com%3A1337&amp;tr=udp%3A%2F%2Ftracker.coppersurfer.tk%3A6969&amp;tr=udp%3A%2F%2Fexodus.desync.com%3A6969","seeders":1,"leechers":0,"uploader":"davidrpeet","files":1,"time":1471326579,"description":"Complete Joy - Love\r\nWeekly sermons from CrossRoads Church in Decatur, Texas\r\n\r\n\r\nGeneral\r\nComplete name                            : 20160814 - Complete Joy - Love.mp4\r\nFormat                                   : MPEG-4\r\nFormat profile                           : Base Media / Version 2\r\nCodec ID                                 : mp42\r\nFile size                                : 202 MiB\r\nDuration                                 : 29mn 2s\r\nOverall bit rate mode                    : Variable\r\nOverall bit rate                         : 975 Kbps\r\nMovie name                               : Complete Joy - Love\r\nAlbum                                    : CrossRoads Church \r\nAlbum/Performer                          : Darren Embree\r\nPerformer                                : Darren Embree\r\nComposer                                 : http://crossroadspeople.com/\r\nGenre                                    : Speech\r\nRecorded date                            : 2016\r\nEncoded date                             : UTC 2016-08-15 07:34:41\r\nTagged date                              : UTC 2016-08-15 07:34:41\r\nCover                                    : Yes\r\nComment                                  : CrossRoads To Go Video Podcasts\r\n\r\nVideo\r\nID                                       : 1\r\nFormat                                   : AVC\r\nFormat/Info                              : Advanced Video Codec\r\nFormat profile                           :   \r\nFormat settings, CABAC                   : Yes\r\nFormat settings, ReFrames                : 4 frames\r\nCodec ID                                 : avc1\r\nCodec ID/Info                            : Advanced Video Coding\r\nDuration                                 : 29mn 2s\r\nBit rate                                 : 714 Kbps\r\nWidth                                    : 720 pixels\r\nHeight                                   : 540 pixels\r\nDisplay aspect ratio                     : 4:3\r\nFrame rate mode                          : Constant\r\nFrame rate                               : 29.970 fps\r\nColor space                              : YUV\r\nChroma subsampling                       : 4:2:0\r\nBit depth                                : 8 bits\r\nScan type                                : Progressive\r\nBits/(Pixel*Frame)                       : 0.061\r\nStream size                              : 148 MiB (73%)\r\nWriting library                          : x264 core 148 r10 3f5ed56\r\nEncoded date                             : UTC 2016-08-15 07:34:41\r\nTagged date                              : UTC 2016-08-15 07:34:41\r\nColor primaries                          : BT.601 NTSC\r\nTransfer characteristics                 : BT.470 System B, BT.470 System G\r\nMatrix coefficients                      : BT.601\r\n\r\nAudio\r\nID                                       : 2\r\nFormat                                   : AAC\r\nFormat/Info                              : Advanced Audio Codec\r\nFormat profile                           : LC\r\nCodec ID                                 : 40\r\nDuration                                 : 29mn 2s\r\nBit rate mode                            : Variable\r\nBit rate                                 : 256 Kbps\r\nChannel(s)                               : 2 channels\r\nChannel positions                        : Front: L R\r\nSampling rate                            : 48.0 KHz\r\nCompression mode                         : Lossy\r\nStream size                              : 53.2 MiB (26%)\r\nEncoded date                             : UTC 2016-08-15 07:34:41\r\nTagged date                              : UTC 2016-08-15 07:34:41","torrent":{"xt":"urn:btih:4839822c984308ce187444342e150c0e037ba997","amp;dn":"Complete+Joy+-+Love","amp;tr":["udp%3A%2F%2Ftracker.leechers-paradise.org%3A6969","udp%3A%2F%2Fzer0day.ch%3A1337","udp%3A%2F%2Fopen.demonii.com%3A1337","udp%3A%2F%2Ftracker.coppersurfer.tk%3A6969","udp%3A%2F%2Fexodus.desync.com%3A6969"],"infoHash":"4839822c984308ce187444342e150c0e037ba997","infoHashBuffer":{"type":"Buffer","data":[72,57,130,44,152,67,8,206,24,116,68,52,46,21,12,14,3,123,169,151]},"announce":[],"urlList":[]}}